# xmcd
#
# Track frame offsets:
#	150
#	25720
#	46320
#	63797
#	84802
#	108160
#	128090
#	150782
#	173050
#	192712
#
# Disc length: 2865 seconds
#
# Revision: 0
# Processed by: cddbd v1.5.2PL0 Copyright (c) Steve Scherf et al.
# Submitted via: dBpowerAMP V4.0
#
DISCID=6a0b2f0a
DTITLE=Jeanne Newhall - Soul Of My Own
DYEAR=1900
DGENRE=Blues
TTITLE0=Day of Gratefulness
TTITLE1=Surrender, My Heart
TTITLE2=Sushi Bules
TTITLE3=Always Be Your Girl
TTITLE4=In The Arms of Love
TTITLE5=Rascalette
TTITLE6=I'm Every Woman
TTITLE7=Lover's Trust
TTITLE8=Oh, Heaven
TTITLE9=Duende
EXTD=
EXTT0=
EXTT1=
EXTT2=
EXTT3=
EXTT4=
EXTT5=
EXTT6=
EXTT7=
EXTT8=
EXTT9=
PLAYORDER=
